<svg xmlns="http://www.w3.org/2000/svg" viewBox="0 0 476 120"><defs><style>.cls-1{fill:none;}.cls-2{fill:#0abf61;}</style></defs><title>logo_new_light</title><g id="图层_2" data-name="图层 2"><rect class="cls-1" x="-0.2" y="0.29" width="476" height="120.01"/></g><g id="图层_1" data-name="图层 1"><rect x="329.52" y="54.37" width="5.2" height="37.57"/><rect x="329.52" y="43.39" width="5.2" height="5.2"/><polygon points="290.92 38.52 285.72 38.52 285.72 86.74 285.72 91.94 290.92 91.94 319.71 91.94 319.71 86.74 290.92 86.74 290.92 38.52"/><path d="M359.1,54.37a14.57,14.57,0,0,0-14.57,14.57v23h5.2v-23a9.37,9.37,0,0,1,18.74,0v23h5.2v-23A14.57,14.57,0,0,0,359.1,54.37Z"/><path d="M407.43,77.36a9.38,9.38,0,1,1-18.75,0v-23h-5.2v23a14.58,14.58,0,1,0,29.15,0v-23h-5.2Z"/><polygon points="442.84 72.76 442.82 72.73 442.84 72.7 456.12 54.38 449.72 54.38 439.64 68.26 439.62 68.29 429.52 54.44 423.12 54.44 436.42 72.73 422.44 91.94 428.88 91.94 439.62 77.13 439.64 77.16 450.4 92 456.84 92 442.84 72.76"/><path d="M170.82,61.94a10.17,10.17,0,0,1,2.44.29,10.31,10.31,0,0,1,5.54,3.49l.39.47,7-5.91-.39-.45a19.43,19.43,0,0,0-10.41-6.55,19.88,19.88,0,0,0-4.6-.55,19.6,19.6,0,0,0-4.57,38.66,19.88,19.88,0,0,0,4.6.55,19.56,19.56,0,0,0,14.92-7l.39-.46-7-5.9-.38.46a10.39,10.39,0,1,1-7.93-17.11Z"/><rect x="103.33" y="38.59" width="9.2" height="9.2"/><rect x="103.33" y="53.57" width="9.2" height="38.77"/><rect x="196.03" y="38.52" width="9.2" height="53.41"/><path d="M252.2,75.74a20.11,20.11,0,0,0,.3-3.41h0c0-.61,0-1.22-.08-1.81,0-.2,0-.38-.07-.57,0-.42-.11-.82-.18-1.23l-.12-.62c-.08-.4-.18-.78-.29-1.17,0-.19-.09-.38-.15-.56-.16-.53-.34-1.05-.54-1.55l-.27-.61c-.14-.31-.27-.62-.42-.91s-.27-.51-.41-.76-.25-.45-.39-.67-.33-.54-.5-.8l-.34-.47a20.2,20.2,0,0,0-2.47-2.83l-.16-.15c-.32-.29-.66-.58-1-.85l-.12-.09a18,18,0,0,0-11.22-4c-10.33,0-18.73,8.8-18.73,19.6h0a19.59,19.59,0,0,0,35,12.07L243,78.48a10.38,10.38,0,0,1-18.2-2.74H252.2ZM234.12,62a9.89,9.89,0,0,1,9,6.19H225.1A9.86,9.86,0,0,1,234.12,62Z"/><path d="M134.54,60.58v-7h-9.2V92.34h9.2V73.69c0-6.55,4.9-10.8,12.82-10.09V53.16A14.11,14.11,0,0,0,134.54,60.58Z"/><rect class="cls-2" x="64.04" y="21.53" width="11.54" height="11.54"/><rect class="cls-2" x="75.58" y="33.07" width="10.26" height="10.26"/><rect class="cls-2" x="83.78" y="25.66" width="4.76" height="4.76"/><rect class="cls-2" x="85.84" y="43.33" width="7.69" height="7.69"/><path class="cls-2" d="M79.8,72.89A25.65,25.65,0,1,1,55.3,34.43c.79-.07,1.57-.1,2.35-.1V21.53A38.46,38.46,0,1,0,89.72,81.22Z"/></g></svg>